<svg xmlns="http://www.w3.org/2000/svg" xmlns:xlink="http://www.w3.org/1999/xlink" width="1080" zoomAndPan="magnify" viewBox="0 0 810 809.999993" height="1080" preserveAspectRatio="xMidYMid meet" version="1.0"><defs><clipPath id="7b6876601f"><path d="M 251 312.613281 L 559 312.613281 L 559 370 L 251 370 Z M 251 312.613281 " clip-rule="nonzero"/></clipPath><clipPath id="da19aecc32"><path d="M 191 454 L 620 454 L 620 596.113281 L 191 596.113281 Z M 191 454 " clip-rule="nonzero"/></clipPath><clipPath id="d3221ce16c"><path d="M 188.378906 380 L 621.878906 380 L 621.878906 532 L 188.378906 532 Z M 188.378906 380 " clip-rule="nonzero"/></clipPath><clipPath id="fd16bd0b5c"><path d="M 218 521 L 324 521 L 324 625.5 L 218 625.5 Z M 218 521 " clip-rule="nonzero"/></clipPath></defs><g clip-path="url(#7b6876601f)"><path fill="#000000" d="M 294.394531 367.71875 L 515.628906 367.71875 C 528.320312 367.71875 543.570312 368.71875 558.269531 369.980469 L 543.867188 340.625 C 542.859375 338.546875 541.707031 336.546875 540.417969 334.628906 C 539.125 332.710938 537.707031 330.890625 536.164062 329.171875 C 534.617188 327.449219 532.960938 325.84375 531.191406 324.355469 C 529.421875 322.867188 527.554688 321.511719 525.59375 320.28125 C 523.636719 319.054688 521.601562 317.96875 519.488281 317.027344 C 517.378906 316.085938 515.210938 315.292969 512.988281 314.652344 C 510.765625 314.015625 508.507812 313.53125 506.21875 313.207031 C 503.929688 312.882812 501.628906 312.722656 499.316406 312.71875 L 310.625 312.71875 C 308.3125 312.71875 306.007812 312.878906 303.71875 313.203125 C 301.425781 313.523438 299.167969 314.003906 296.945312 314.640625 C 294.71875 315.28125 292.550781 316.070312 290.4375 317.011719 C 288.324219 317.957031 286.285156 319.042969 284.324219 320.269531 C 282.363281 321.496094 280.496094 322.855469 278.726562 324.34375 C 276.953125 325.832031 275.296875 327.4375 273.75 329.160156 C 272.203125 330.882812 270.785156 332.703125 269.492188 334.625 C 268.203125 336.542969 267.050781 338.546875 266.039062 340.625 L 251.769531 369.980469 C 266.457031 368.71875 281.703125 367.71875 294.394531 367.71875 Z M 294.394531 367.71875 " fill-opacity="1" fill-rule="nonzero"/></g><g clip-path="url(#da19aecc32)"><path fill="#000000" d="M 524.417969 544.714844 C 491.742188 544.714844 466.609375 536.011719 447.554688 518.136719 C 430.792969 502.40625 421.375 481.875 413.667969 462.039062 L 413.585938 461.808594 L 413.585938 461.558594 C 412.273438 457.789062 408.734375 454.367188 405.0625 454 C 401.375 454.367188 397.835938 457.789062 396.539062 461.558594 L 396.457031 461.808594 L 396.359375 462.039062 C 388.667969 481.875 379.230469 502.40625 362.488281 518.136719 C 343.433594 536.0625 318.285156 544.714844 285.625 544.714844 C 260.011719 544.714844 211.804688 535.199219 191.089844 509.316406 L 191.089844 532.292969 C 191.089844 533.308594 191.136719 534.320312 191.238281 535.332031 C 191.335938 536.34375 191.484375 537.34375 191.683594 538.339844 C 191.882812 539.339844 192.128906 540.320312 192.425781 541.292969 C 192.71875 542.265625 193.058594 543.222656 193.449219 544.160156 C 193.839844 545.097656 194.273438 546.015625 194.75 546.910156 C 195.230469 547.808594 195.75 548.675781 196.316406 549.523438 C 196.878906 550.367188 197.484375 551.179688 198.128906 551.964844 C 198.773438 552.75 199.453125 553.503906 200.171875 554.222656 C 200.890625 554.941406 201.640625 555.621094 202.425781 556.265625 C 203.210938 556.910156 204.027344 557.515625 204.871094 558.078125 C 205.714844 558.644531 206.585938 559.164062 207.484375 559.644531 C 208.378906 560.121094 209.296875 560.554688 210.234375 560.945312 C 211.171875 561.332031 212.128906 561.675781 213.097656 561.96875 C 214.070312 562.265625 215.054688 562.511719 216.050781 562.710938 C 217.046875 562.90625 218.050781 563.054688 219.0625 563.15625 C 220.074219 563.253906 221.085938 563.304688 222.101562 563.304688 L 222.101562 588.621094 C 222.101562 589.121094 222.152344 589.613281 222.25 590.101562 C 222.34375 590.589844 222.488281 591.066406 222.679688 591.527344 C 222.871094 591.988281 223.105469 592.425781 223.382812 592.839844 C 223.660156 593.253906 223.972656 593.636719 224.324219 593.988281 C 224.679688 594.339844 225.0625 594.65625 225.476562 594.933594 C 225.890625 595.210938 226.328125 595.445312 226.789062 595.636719 C 227.25 595.824219 227.722656 595.96875 228.210938 596.066406 C 228.703125 596.164062 229.195312 596.210938 229.695312 596.210938 L 280.226562 596.210938 C 280.726562 596.210938 281.21875 596.164062 281.707031 596.066406 C 282.195312 595.96875 282.671875 595.824219 283.132812 595.636719 C 283.59375 595.445312 284.03125 595.210938 284.445312 594.933594 C 284.859375 594.65625 285.242188 594.339844 285.59375 593.988281 C 285.945312 593.636719 286.261719 593.253906 286.539062 592.839844 C 286.816406 592.425781 287.050781 591.988281 287.238281 591.527344 C 287.429688 591.066406 287.574219 590.589844 287.671875 590.101562 C 287.769531 589.613281 287.816406 589.121094 287.816406 588.621094 L 287.816406 577.175781 C 287.816406 576.597656 287.875 576.023438 287.988281 575.457031 C 288.101562 574.890625 288.265625 574.339844 288.488281 573.804688 C 288.710938 573.273438 288.980469 572.765625 289.300781 572.285156 C 289.621094 571.804688 289.988281 571.359375 290.394531 570.949219 C 290.804688 570.542969 291.25 570.175781 291.730469 569.855469 C 292.210938 569.535156 292.71875 569.261719 293.253906 569.042969 C 293.785156 568.820312 294.335938 568.652344 294.90625 568.539062 C 295.472656 568.429688 296.042969 568.371094 296.621094 568.371094 L 513.320312 568.371094 C 513.898438 568.371094 514.472656 568.429688 515.039062 568.539062 C 515.605469 568.652344 516.15625 568.820312 516.6875 569.042969 C 517.222656 569.261719 517.730469 569.535156 518.210938 569.855469 C 518.691406 570.175781 519.136719 570.542969 519.546875 570.949219 C 519.953125 571.359375 520.320312 571.804688 520.640625 572.285156 C 520.960938 572.765625 521.234375 573.273438 521.453125 573.804688 C 521.675781 574.339844 521.84375 574.890625 521.957031 575.457031 C 522.066406 576.023438 522.125 576.597656 522.125 577.175781 L 522.125 588.621094 C 522.125 589.121094 522.175781 589.613281 522.273438 590.101562 C 522.371094 590.589844 522.515625 591.0625 522.707031 591.523438 C 522.898438 591.984375 523.132812 592.421875 523.410156 592.835938 C 523.6875 593.25 524 593.632812 524.351562 593.984375 C 524.703125 594.335938 525.089844 594.652344 525.503906 594.929688 C 525.917969 595.207031 526.351562 595.4375 526.8125 595.628906 C 527.273438 595.820312 527.746094 595.964844 528.234375 596.0625 C 528.722656 596.160156 529.21875 596.210938 529.714844 596.210938 L 580.414062 596.210938 C 580.914062 596.210938 581.40625 596.160156 581.894531 596.0625 C 582.382812 595.964844 582.855469 595.820312 583.316406 595.628906 C 583.777344 595.4375 584.214844 595.207031 584.628906 594.929688 C 585.042969 594.652344 585.425781 594.335938 585.777344 593.984375 C 586.128906 593.632812 586.445312 593.25 586.722656 592.835938 C 587 592.421875 587.234375 591.984375 587.421875 591.523438 C 587.613281 591.0625 587.757812 590.589844 587.855469 590.101562 C 587.957031 589.613281 588.003906 589.121094 588.007812 588.621094 L 588.007812 563.304688 C 589.023438 563.304688 590.035156 563.253906 591.046875 563.15625 C 592.054688 563.054688 593.058594 562.90625 594.054688 562.710938 C 595.050781 562.511719 596.035156 562.265625 597.007812 561.96875 C 597.980469 561.675781 598.933594 561.332031 599.871094 560.945312 C 600.808594 560.554688 601.726562 560.121094 602.621094 559.640625 C 603.519531 559.164062 604.386719 558.640625 605.230469 558.078125 C 606.078125 557.511719 606.890625 556.910156 607.675781 556.265625 C 608.460938 555.621094 609.210938 554.9375 609.929688 554.21875 C 610.648438 553.503906 611.328125 552.75 611.972656 551.964844 C 612.617188 551.179688 613.222656 550.363281 613.785156 549.519531 C 614.347656 548.675781 614.871094 547.804688 615.347656 546.910156 C 615.828125 546.015625 616.261719 545.097656 616.648438 544.160156 C 617.035156 543.21875 617.378906 542.265625 617.671875 541.292969 C 617.96875 540.320312 618.210938 539.335938 618.410156 538.339844 C 618.609375 537.34375 618.757812 536.339844 618.855469 535.332031 C 618.953125 534.320312 619.003906 533.308594 619.003906 532.292969 L 619.003906 509.316406 C 598.222656 535.199219 550.015625 544.714844 524.417969 544.714844 Z M 524.417969 544.714844 " fill-opacity="1" fill-rule="nonzero"/></g><g clip-path="url(#d3221ce16c)"><path fill="#ffffff" d="M 621.113281 396.789062 C 620.613281 391.808594 619.1875 389.117188 612.808594 388.484375 C 609.734375 388.484375 601.429688 387.605469 590.914062 386.492188 C 569.949219 384.332031 538.269531 380.992188 515.628906 380.992188 C 489.050781 380.992188 465.546875 386.292969 444.78125 390.960938 C 429.382812 394.414062 416.175781 397.4375 405.195312 397.4375 L 404.746094 397.4375 C 393.78125 397.4375 380.558594 394.464844 365.246094 391.007812 C 344.496094 386.339844 320.957031 381.042969 294.394531 381.042969 C 271.671875 381.042969 239.992188 384.363281 219.027344 386.589844 C 208.515625 387.703125 200.226562 388.585938 197.136719 388.585938 C 190.757812 389.164062 189.34375 391.90625 188.828125 396.890625 C 188.378906 400.910156 188.378906 410.59375 188.378906 416.988281 C 188.378906 421.972656 190.9375 423.636719 193.199219 424.117188 C 198.347656 426.027344 200.972656 429.234375 202.136719 435.015625 C 203.515625 445.511719 210.160156 479.21875 215.589844 493.238281 C 227.433594 521.476562 260.675781 531.445312 285.542969 531.445312 C 349.710938 531.445312 369.296875 494.800781 383.898438 457.191406 C 388.78125 443.019531 393.714844 431.277344 404.746094 431.277344 L 405.195312 431.277344 C 416.242188 431.277344 421.175781 443.019531 426.042969 457.191406 C 440.644531 494.800781 460.246094 531.445312 524.417969 531.445312 C 549.335938 531.445312 582.558594 521.476562 594.351562 493.238281 C 599.785156 479.21875 606.445312 445.511719 607.808594 435.097656 C 608.96875 429.316406 611.578125 426.109375 616.761719 424.199219 C 619.003906 423.75 621.5625 422.140625 621.5625 417.074219 C 621.5625 410.59375 621.5625 400.910156 621.113281 396.789062 Z M 356.738281 484.832031 C 335.757812 515.863281 309.0625 520.148438 283.316406 520.148438 C 231.820312 520.148438 220.957031 482.125 220.957031 450.230469 C 220.957031 398.734375 242.203125 393.617188 294.394531 393.617188 C 332.121094 393.617188 372.769531 405.378906 372.769531 431.175781 C 372.769531 449.265625 364.664062 471.890625 356.738281 484.832031 Z M 526.625 520.148438 C 500.894531 520.148438 474.183594 515.863281 453.21875 484.832031 C 445.296875 471.890625 437.207031 449.265625 437.207031 431.175781 C 437.207031 405.378906 477.820312 393.617188 515.546875 393.617188 C 567.738281 393.617188 589.003906 398.734375 589.003906 450.230469 C 589.003906 482.15625 578.171875 520.148438 526.625 520.148438 Z M 526.625 520.148438 " fill-opacity="1" fill-rule="nonzero"/></g><path fill="#000000" d="M 300.691406 417.65625 C 299.609375 417.65625 298.53125 417.707031 297.453125 417.8125 C 296.375 417.921875 295.308594 418.078125 294.246094 418.289062 C 293.183594 418.5 292.136719 418.765625 291.101562 419.078125 C 290.066406 419.390625 289.046875 419.757812 288.046875 420.171875 C 287.046875 420.585938 286.070312 421.046875 285.117188 421.558594 C 284.164062 422.070312 283.234375 422.625 282.335938 423.226562 C 281.4375 423.828125 280.570312 424.472656 279.730469 425.160156 C 278.894531 425.84375 278.09375 426.570312 277.332031 427.335938 C 276.566406 428.101562 275.839844 428.902344 275.152344 429.742188 C 274.46875 430.578125 273.824219 431.445312 273.222656 432.347656 C 272.625 433.246094 272.066406 434.171875 271.558594 435.128906 C 271.050781 436.082031 270.585938 437.058594 270.175781 438.058594 C 269.761719 439.058594 269.398438 440.078125 269.082031 441.113281 C 268.769531 442.148438 268.507812 443.199219 268.296875 444.257812 C 268.085938 445.320312 267.929688 446.390625 267.824219 447.46875 C 267.71875 448.542969 267.667969 449.625 267.667969 450.707031 C 267.667969 451.789062 267.722656 452.867188 267.828125 453.945312 C 267.9375 455.023438 268.097656 456.089844 268.308594 457.152344 C 268.519531 458.210938 268.785156 459.261719 269.097656 460.296875 C 269.414062 461.332031 269.78125 462.347656 270.195312 463.347656 C 270.609375 464.347656 271.074219 465.324219 271.585938 466.277344 C 272.097656 467.230469 272.652344 468.15625 273.253906 469.058594 C 273.855469 469.957031 274.5 470.824219 275.1875 471.660156 C 275.875 472.496094 276.605469 473.296875 277.371094 474.058594 C 278.136719 474.824219 278.9375 475.546875 279.773438 476.234375 C 280.613281 476.917969 281.480469 477.5625 282.382812 478.160156 C 283.28125 478.761719 284.210938 479.316406 285.164062 479.824219 C 286.121094 480.332031 287.097656 480.792969 288.097656 481.207031 C 289.097656 481.621094 290.117188 481.980469 291.152344 482.292969 C 292.191406 482.605469 293.238281 482.867188 294.300781 483.078125 C 295.363281 483.289062 296.429688 483.445312 297.507812 483.546875 C 298.585938 483.652344 299.664062 483.703125 300.746094 483.703125 C 301.828125 483.699219 302.910156 483.644531 303.984375 483.539062 C 305.0625 483.429688 306.132812 483.269531 307.191406 483.054688 C 308.253906 482.84375 309.300781 482.578125 310.335938 482.261719 C 311.371094 481.945312 312.386719 481.582031 313.386719 481.164062 C 314.386719 480.75 315.363281 480.285156 316.316406 479.773438 C 317.269531 479.261719 318.195312 478.703125 319.09375 478.101562 C 319.992188 477.496094 320.859375 476.851562 321.695312 476.164062 C 322.527344 475.476562 323.328125 474.746094 324.09375 473.980469 C 324.855469 473.214844 325.578125 472.410156 326.265625 471.574219 C 326.949219 470.734375 327.589844 469.867188 328.191406 468.964844 C 328.789062 468.0625 329.34375 467.136719 329.851562 466.179688 C 330.359375 465.226562 330.820312 464.246094 331.230469 463.246094 C 331.644531 462.246094 332.003906 461.226562 332.316406 460.191406 C 332.628906 459.152344 332.886719 458.105469 333.097656 457.042969 C 333.304688 455.980469 333.460938 454.910156 333.566406 453.835938 C 333.667969 452.757812 333.71875 451.675781 333.714844 450.59375 C 333.714844 449.515625 333.65625 448.4375 333.550781 447.363281 C 333.441406 446.289062 333.28125 445.222656 333.066406 444.164062 C 332.855469 443.105469 332.589844 442.058594 332.273438 441.027344 C 331.957031 439.996094 331.59375 438.980469 331.179688 437.984375 C 330.761719 436.988281 330.300781 436.011719 329.789062 435.0625 C 329.277344 434.109375 328.722656 433.183594 328.121094 432.289062 C 327.519531 431.390625 326.875 430.527344 326.191406 429.691406 C 325.503906 428.859375 324.777344 428.058594 324.015625 427.296875 C 323.25 426.535156 322.449219 425.8125 321.613281 425.128906 C 320.777344 424.445312 319.910156 423.800781 319.011719 423.203125 C 318.113281 422.605469 317.1875 422.050781 316.234375 421.542969 C 315.285156 421.035156 314.308594 420.574219 313.308594 420.160156 C 312.3125 419.746094 311.296875 419.386719 310.261719 419.070312 C 309.230469 418.757812 308.183594 418.496094 307.125 418.289062 C 306.066406 418.078125 305 417.917969 303.921875 417.8125 C 302.847656 417.707031 301.773438 417.65625 300.691406 417.65625 Z M 300.691406 456.507812 C 300.128906 456.507812 299.566406 456.480469 299.003906 456.421875 C 298.441406 456.367188 297.886719 456.28125 297.332031 456.171875 C 296.78125 456.0625 296.234375 455.921875 295.695312 455.757812 C 295.152344 455.59375 294.625 455.402344 294.101562 455.1875 C 293.582031 454.96875 293.074219 454.726562 292.578125 454.460938 C 292.078125 454.195312 291.597656 453.902344 291.128906 453.589844 C 290.660156 453.273438 290.207031 452.9375 289.773438 452.578125 C 289.335938 452.222656 288.921875 451.839844 288.523438 451.441406 C 288.125 451.042969 287.746094 450.625 287.390625 450.1875 C 287.03125 449.75 286.699219 449.296875 286.386719 448.828125 C 286.074219 448.359375 285.785156 447.875 285.519531 447.378906 C 285.253906 446.878906 285.015625 446.371094 284.800781 445.847656 C 284.582031 445.328125 284.394531 444.796875 284.230469 444.257812 C 284.070312 443.714844 283.933594 443.167969 283.824219 442.617188 C 283.714844 442.0625 283.632812 441.503906 283.578125 440.945312 C 283.523438 440.382812 283.496094 439.820312 283.5 439.253906 C 283.5 438.691406 283.527344 438.128906 283.585938 437.566406 C 283.640625 437.007812 283.722656 436.449219 283.835938 435.894531 C 283.945312 435.34375 284.082031 434.796875 284.25 434.257812 C 284.414062 433.71875 284.601562 433.1875 284.820312 432.667969 C 285.035156 432.144531 285.277344 431.636719 285.546875 431.140625 C 285.8125 430.644531 286.101562 430.160156 286.417969 429.691406 C 286.730469 429.222656 287.066406 428.769531 287.425781 428.335938 C 287.785156 427.898438 288.164062 427.484375 288.5625 427.085938 C 288.960938 426.6875 289.378906 426.308594 289.816406 425.953125 C 290.253906 425.59375 290.707031 425.257812 291.175781 424.945312 C 291.644531 424.632812 292.128906 424.34375 292.625 424.078125 C 293.125 423.8125 293.632812 423.574219 294.15625 423.359375 C 294.675781 423.144531 295.207031 422.953125 295.746094 422.792969 C 296.285156 422.628906 296.832031 422.492188 297.386719 422.382812 C 297.941406 422.273438 298.496094 422.191406 299.058594 422.136719 C 299.621094 422.082031 300.183594 422.054688 300.746094 422.058594 C 301.3125 422.058594 301.875 422.085938 302.433594 422.140625 C 302.996094 422.199219 303.554688 422.28125 304.105469 422.390625 C 304.660156 422.503906 305.207031 422.640625 305.746094 422.804688 C 306.285156 422.96875 306.816406 423.160156 307.335938 423.375 C 307.855469 423.59375 308.367188 423.832031 308.863281 424.101562 C 309.359375 424.367188 309.84375 424.65625 310.3125 424.972656 C 310.78125 425.285156 311.234375 425.621094 311.667969 425.980469 C 312.105469 426.335938 312.519531 426.714844 312.917969 427.117188 C 313.316406 427.515625 313.695312 427.933594 314.054688 428.371094 C 314.410156 428.804688 314.746094 429.257812 315.058594 429.726562 C 315.371094 430.199219 315.660156 430.679688 315.925781 431.179688 C 316.191406 431.675781 316.429688 432.1875 316.648438 432.707031 C 316.863281 433.230469 317.050781 433.757812 317.214844 434.300781 C 317.378906 434.839844 317.515625 435.386719 317.625 435.9375 C 317.734375 436.492188 317.816406 437.050781 317.871094 437.609375 C 317.925781 438.171875 317.953125 438.734375 317.953125 439.300781 C 317.949219 439.863281 317.921875 440.425781 317.867188 440.988281 C 317.8125 441.550781 317.726562 442.109375 317.617188 442.660156 C 317.503906 443.214844 317.367188 443.761719 317.203125 444.300781 C 317.039062 444.84375 316.847656 445.371094 316.632812 445.894531 C 316.414062 446.414062 316.171875 446.925781 315.90625 447.421875 C 315.640625 447.921875 315.351562 448.402344 315.035156 448.871094 C 314.722656 449.339844 314.382812 449.792969 314.027344 450.230469 C 313.667969 450.664062 313.289062 451.082031 312.886719 451.480469 C 312.488281 451.878906 312.070312 452.257812 311.632812 452.617188 C 311.195312 452.972656 310.742188 453.308594 310.273438 453.621094 C 309.804688 453.933594 309.320312 454.222656 308.820312 454.488281 C 308.324219 454.753906 307.8125 454.992188 307.289062 455.210938 C 306.769531 455.425781 306.238281 455.613281 305.695312 455.777344 C 305.15625 455.9375 304.609375 456.074219 304.054688 456.183594 C 303.5 456.292969 302.941406 456.375 302.382812 456.429688 C 301.820312 456.484375 301.257812 456.511719 300.691406 456.507812 Z M 300.691406 456.507812 " fill-opacity="1" fill-rule="evenodd"/><path fill="#000000" d="M 509.25 417.65625 C 508.167969 417.652344 507.085938 417.703125 506.011719 417.808594 C 504.933594 417.910156 503.863281 418.066406 502.800781 418.277344 C 501.738281 418.488281 500.6875 418.746094 499.652344 419.058594 C 498.617188 419.371094 497.597656 419.734375 496.597656 420.148438 C 495.59375 420.558594 494.617188 421.019531 493.660156 421.53125 C 492.707031 422.039062 491.777344 422.59375 490.875 423.195312 C 489.976562 423.792969 489.105469 424.4375 488.269531 425.121094 C 487.429688 425.808594 486.628906 426.53125 485.863281 427.296875 C 485.09375 428.0625 484.367188 428.863281 483.679688 429.699219 C 482.992188 430.535156 482.347656 431.402344 481.746094 432.300781 C 481.144531 433.203125 480.585938 434.128906 480.074219 435.082031 C 479.5625 436.035156 479.101562 437.015625 478.683594 438.015625 C 478.269531 439.015625 477.90625 440.03125 477.589844 441.066406 C 477.273438 442.101562 477.011719 443.152344 476.800781 444.214844 C 476.585938 445.273438 476.429688 446.34375 476.320312 447.421875 C 476.214844 448.5 476.160156 449.578125 476.160156 450.660156 C 476.160156 451.746094 476.210938 452.824219 476.316406 453.902344 C 476.421875 454.980469 476.582031 456.050781 476.792969 457.109375 C 477.003906 458.171875 477.265625 459.222656 477.578125 460.257812 C 477.894531 461.292969 478.257812 462.3125 478.671875 463.3125 C 479.085938 464.3125 479.546875 465.289062 480.058594 466.246094 C 480.570312 467.199219 481.125 468.128906 481.726562 469.027344 C 482.328125 469.925781 482.972656 470.796875 483.660156 471.632812 C 484.347656 472.46875 485.074219 473.269531 485.839844 474.035156 C 486.605469 474.800781 487.40625 475.527344 488.242188 476.214844 C 489.078125 476.898438 489.949219 477.542969 490.847656 478.144531 C 491.75 478.746094 492.675781 479.300781 493.632812 479.8125 C 494.585938 480.320312 495.566406 480.78125 496.566406 481.195312 C 497.566406 481.609375 498.585938 481.972656 499.621094 482.289062 C 500.65625 482.601562 501.707031 482.863281 502.769531 483.074219 C 503.828125 483.285156 504.898438 483.441406 505.976562 483.546875 C 507.054688 483.652344 508.132812 483.703125 509.21875 483.703125 C 510.300781 483.699219 511.378906 483.648438 512.457031 483.539062 C 513.535156 483.433594 514.605469 483.273438 515.664062 483.058594 C 516.726562 482.847656 517.777344 482.582031 518.8125 482.269531 C 519.847656 481.953125 520.863281 481.585938 521.863281 481.171875 C 522.863281 480.753906 523.839844 480.292969 524.792969 479.78125 C 525.75 479.269531 526.675781 478.710938 527.574219 478.109375 C 528.472656 477.503906 529.339844 476.859375 530.175781 476.171875 C 531.011719 475.484375 531.8125 474.753906 532.578125 473.988281 C 533.339844 473.222656 534.066406 472.417969 534.75 471.582031 C 535.4375 470.742188 536.078125 469.875 536.679688 468.972656 C 537.277344 468.070312 537.832031 467.140625 538.339844 466.1875 C 538.847656 465.230469 539.308594 464.253906 539.722656 463.25 C 540.132812 462.25 540.496094 461.230469 540.808594 460.195312 C 541.117188 459.15625 541.378906 458.109375 541.589844 457.046875 C 541.796875 455.984375 541.953125 454.914062 542.054688 453.835938 C 542.160156 452.757812 542.210938 451.679688 542.207031 450.59375 C 542.207031 449.515625 542.148438 448.441406 542.042969 447.367188 C 541.933594 446.296875 541.773438 445.230469 541.5625 444.171875 C 541.347656 443.117188 541.085938 442.070312 540.769531 441.039062 C 540.457031 440.007812 540.089844 438.996094 539.675781 438 C 539.261719 437.003906 538.800781 436.03125 538.292969 435.078125 C 537.78125 434.128906 537.226562 433.207031 536.628906 432.308594 C 536.027344 431.414062 535.386719 430.546875 534.699219 429.714844 C 534.015625 428.882812 533.292969 428.082031 532.53125 427.320312 C 531.765625 426.558594 530.96875 425.835938 530.136719 425.152344 C 529.300781 424.46875 528.4375 423.824219 527.539062 423.226562 C 526.644531 422.625 525.71875 422.070312 524.769531 421.5625 C 523.816406 421.054688 522.84375 420.59375 521.847656 420.179688 C 520.851562 419.765625 519.839844 419.402344 518.808594 419.085938 C 517.777344 418.773438 516.730469 418.511719 515.671875 418.296875 C 514.617188 418.085938 513.550781 417.925781 512.476562 417.820312 C 511.40625 417.710938 510.328125 417.65625 509.25 417.65625 Z M 509.25 456.507812 C 508.6875 456.507812 508.125 456.480469 507.5625 456.425781 C 507 456.371094 506.441406 456.289062 505.890625 456.179688 C 505.335938 456.066406 504.789062 455.929688 504.25 455.765625 C 503.707031 455.601562 503.179688 455.414062 502.65625 455.199219 C 502.136719 454.980469 501.625 454.742188 501.128906 454.472656 C 500.628906 454.207031 500.148438 453.917969 499.679688 453.605469 C 499.210938 453.292969 498.757812 452.957031 498.320312 452.597656 C 497.882812 452.238281 497.464844 451.859375 497.066406 451.460938 C 496.667969 451.0625 496.289062 450.644531 495.933594 450.207031 C 495.574219 449.773438 495.238281 449.320312 494.925781 448.851562 C 494.613281 448.382812 494.320312 447.898438 494.054688 447.398438 C 493.789062 446.902344 493.550781 446.394531 493.332031 445.871094 C 493.117188 445.351562 492.929688 444.820312 492.765625 444.277344 C 492.601562 443.738281 492.464844 443.191406 492.355469 442.640625 C 492.246094 442.085938 492.160156 441.527344 492.105469 440.964844 C 492.050781 440.40625 492.023438 439.839844 492.023438 439.277344 C 492.023438 438.714844 492.050781 438.148438 492.109375 437.589844 C 492.164062 437.027344 492.246094 436.46875 492.355469 435.917969 C 492.464844 435.363281 492.605469 434.816406 492.769531 434.277344 C 492.933594 433.734375 493.121094 433.207031 493.339844 432.683594 C 493.554688 432.164062 493.796875 431.652344 494.0625 431.15625 C 494.328125 430.660156 494.617188 430.175781 494.929688 429.707031 C 495.246094 429.238281 495.582031 428.785156 495.9375 428.347656 C 496.296875 427.914062 496.675781 427.496094 497.074219 427.097656 C 497.476562 426.699219 497.890625 426.320312 498.328125 425.960938 C 498.765625 425.605469 499.21875 425.269531 499.6875 424.953125 C 500.15625 424.640625 500.640625 424.351562 501.136719 424.085938 C 501.636719 423.820312 502.144531 423.578125 502.667969 423.363281 C 503.1875 423.148438 503.71875 422.960938 504.257812 422.796875 C 504.800781 422.632812 505.347656 422.496094 505.898438 422.386719 C 506.453125 422.277344 507.011719 422.195312 507.574219 422.136719 C 508.132812 422.082031 508.695312 422.054688 509.261719 422.058594 C 509.824219 422.058594 510.386719 422.085938 510.949219 422.140625 C 511.511719 422.195312 512.070312 422.28125 512.621094 422.390625 C 513.175781 422.5 513.722656 422.636719 514.261719 422.800781 C 514.800781 422.964844 515.332031 423.15625 515.855469 423.371094 C 516.375 423.589844 516.882812 423.832031 517.382812 424.097656 C 517.878906 424.363281 518.363281 424.652344 518.832031 424.96875 C 519.300781 425.28125 519.753906 425.617188 520.1875 425.976562 C 520.625 426.332031 521.042969 426.710938 521.441406 427.113281 C 521.839844 427.511719 522.21875 427.929688 522.574219 428.367188 C 522.933594 428.800781 523.269531 429.253906 523.582031 429.722656 C 523.894531 430.195312 524.183594 430.679688 524.449219 431.175781 C 524.714844 431.671875 524.957031 432.183594 525.171875 432.703125 C 525.386719 433.226562 525.574219 433.757812 525.738281 434.296875 C 525.902344 434.835938 526.039062 435.382812 526.148438 435.9375 C 526.257812 436.492188 526.339844 437.050781 526.394531 437.609375 C 526.449219 438.171875 526.476562 438.734375 526.476562 439.300781 C 526.476562 439.863281 526.449219 440.425781 526.390625 440.988281 C 526.335938 441.546875 526.253906 442.105469 526.144531 442.65625 C 526.03125 443.210938 525.894531 443.757812 525.730469 444.296875 C 525.566406 444.835938 525.375 445.367188 525.160156 445.886719 C 524.945312 446.40625 524.703125 446.917969 524.4375 447.414062 C 524.171875 447.910156 523.882812 448.394531 523.566406 448.863281 C 523.253906 449.332031 522.917969 449.78125 522.5625 450.21875 C 522.203125 450.652344 521.824219 451.070312 521.425781 451.46875 C 521.027344 451.867188 520.609375 452.246094 520.171875 452.605469 C 519.738281 452.960938 519.285156 453.296875 518.816406 453.609375 C 518.347656 453.921875 517.863281 454.210938 517.367188 454.476562 C 516.867188 454.742188 516.359375 454.984375 515.839844 455.199219 C 515.316406 455.414062 514.789062 455.605469 514.246094 455.769531 C 513.707031 455.933594 513.160156 456.070312 512.609375 456.179688 C 512.054688 456.289062 511.5 456.371094 510.9375 456.425781 C 510.375 456.480469 509.8125 456.507812 509.25 456.507812 Z M 509.25 456.507812 " fill-opacity="1" fill-rule="evenodd"/><path fill="#000000" d="M 258.636719 523.921875 C 258.230469 523.921875 257.824219 523.902344 257.414062 523.851562 C 252.152344 523.242188 248.175781 518.800781 248.144531 513.503906 C 248.136719 512.355469 247.234375 397.5 225.589844 300.140625 C 216.238281 258.078125 217 230.382812 227.980469 212.980469 C 238.648438 196.082031 256.726562 191.792969 272.679688 188.007812 C 277.375 186.894531 282.230469 185.742188 286.753906 184.316406 C 295.046875 181.707031 299.964844 175.574219 306.195312 167.808594 C 318.414062 152.578125 333.621094 133.621094 378.9375 133.621094 C 390.03125 133.621094 402.734375 134.785156 416.699219 137.082031 C 474.28125 146.554688 500.773438 177.917969 512.855469 202.5625 C 525.917969 229.207031 525.195312 253.585938 525.15625 254.609375 C 525.046875 257.585938 523.675781 260.378906 521.386719 262.285156 C 519.488281 263.859375 517.113281 264.707031 514.679688 264.707031 C 514.171875 264.707031 513.660156 264.671875 513.148438 264.597656 C 502.355469 263.003906 487.746094 262.195312 469.722656 262.195312 C 407.988281 262.195312 326.292969 271.707031 325.472656 271.800781 C 325.066406 271.847656 324.65625 271.871094 324.25 271.871094 C 322.625 271.871094 321.03125 271.496094 319.597656 270.78125 C 319.570312 270.824219 319.546875 270.867188 319.519531 270.914062 C 302.554688 300.542969 293.214844 330.46875 293.214844 355.179688 C 293.214844 414.363281 269.808594 511.789062 268.8125 515.90625 C 267.667969 520.65625 263.417969 523.921875 258.636719 523.921875 Z M 258.636719 523.921875 " fill-opacity="1" fill-rule="nonzero"/><path fill="#ed0f1a" d="M 324.253906 261.394531 C 324.253906 261.394531 457.347656 245.765625 514.683594 254.230469 C 514.683594 254.230469 517.941406 164.355469 414.996094 147.421875 C 312.050781 130.488281 325.085938 183.242188 289.902344 194.3125 C 254.71875 205.386719 213.671875 198.222656 235.824219 297.867188 C 257.976562 397.515625 258.625 513.445312 258.625 513.445312 C 258.625 513.445312 282.734375 413.796875 282.734375 355.183594 C 282.734375 296.566406 330.296875 224.925781 361.570312 206.035156 C 361.570312 206.035156 329.289062 235.996094 324.253906 261.394531 Z M 324.253906 261.394531 " fill-opacity="1" fill-rule="nonzero"/><g clip-path="url(#fd16bd0b5c)"><path fill="#000000" d="M 271.007812 625.523438 C 242.234375 625.523438 218.824219 602.125 218.824219 573.363281 C 218.824219 544.601562 242.234375 521.203125 271.007812 521.203125 C 299.777344 521.203125 323.1875 544.601562 323.1875 573.363281 C 323.1875 602.125 299.777344 625.523438 271.007812 625.523438 Z M 271.007812 625.523438 " fill-opacity="1" fill-rule="nonzero"/></g><path fill="#ffffff" d="M 312.703125 573.363281 C 312.703125 574.726562 312.636719 576.089844 312.503906 577.449219 C 312.371094 578.808594 312.167969 580.15625 311.902344 581.496094 C 311.636719 582.832031 311.304688 584.15625 310.910156 585.460938 C 310.511719 586.769531 310.054688 588.050781 309.53125 589.3125 C 309.007812 590.574219 308.425781 591.808594 307.78125 593.011719 C 307.136719 594.214844 306.4375 595.382812 305.675781 596.519531 C 304.917969 597.65625 304.105469 598.75 303.238281 599.804688 C 302.375 600.859375 301.457031 601.871094 300.492188 602.835938 C 299.527344 603.800781 298.515625 604.71875 297.460938 605.582031 C 296.402344 606.449219 295.308594 607.261719 294.171875 608.019531 C 293.035156 608.777344 291.867188 609.480469 290.664062 610.121094 C 289.457031 610.765625 288.226562 611.347656 286.964844 611.871094 C 285.703125 612.394531 284.417969 612.855469 283.109375 613.25 C 281.804688 613.644531 280.480469 613.976562 279.140625 614.242188 C 277.800781 614.511719 276.453125 614.710938 275.09375 614.84375 C 273.734375 614.976562 272.371094 615.042969 271.007812 615.042969 C 269.640625 615.042969 268.277344 614.976562 266.917969 614.84375 C 265.558594 614.710938 264.210938 614.511719 262.871094 614.242188 C 261.53125 613.976562 260.207031 613.644531 258.902344 613.25 C 257.59375 612.855469 256.3125 612.394531 255.050781 611.871094 C 253.789062 611.347656 252.554688 610.765625 251.351562 610.121094 C 250.144531 609.480469 248.976562 608.777344 247.839844 608.019531 C 246.703125 607.261719 245.609375 606.449219 244.554688 605.582031 C 243.496094 604.71875 242.488281 603.800781 241.519531 602.835938 C 240.554688 601.871094 239.640625 600.859375 238.773438 599.804688 C 237.90625 598.75 237.09375 597.65625 236.335938 596.519531 C 235.578125 595.382812 234.875 594.214844 234.230469 593.011719 C 233.585938 591.808594 233.003906 590.574219 232.480469 589.3125 C 231.960938 588.050781 231.5 586.769531 231.101562 585.460938 C 230.707031 584.15625 230.375 582.832031 230.109375 581.496094 C 229.84375 580.15625 229.640625 578.808594 229.507812 577.449219 C 229.375 576.089844 229.308594 574.726562 229.308594 573.363281 C 229.308594 571.996094 229.375 570.636719 229.507812 569.277344 C 229.640625 567.917969 229.84375 566.570312 230.109375 565.230469 C 230.375 563.890625 230.707031 562.570312 231.101562 561.261719 C 231.5 559.957031 231.960938 558.671875 232.480469 557.410156 C 233.003906 556.148438 233.585938 554.917969 234.230469 553.714844 C 234.875 552.511719 235.578125 551.339844 236.335938 550.207031 C 237.09375 549.070312 237.90625 547.976562 238.773438 546.917969 C 239.640625 545.863281 240.554688 544.855469 241.519531 543.890625 C 242.488281 542.921875 243.496094 542.007812 244.554688 541.140625 C 245.609375 540.277344 246.703125 539.464844 247.839844 538.707031 C 248.976562 537.945312 250.144531 537.246094 251.351562 536.601562 C 252.554688 535.957031 253.789062 535.375 255.050781 534.851562 C 256.3125 534.332031 257.59375 533.871094 258.902344 533.476562 C 260.207031 533.078125 261.53125 532.746094 262.871094 532.480469 C 264.210938 532.214844 265.558594 532.015625 266.917969 531.882812 C 268.277344 531.746094 269.640625 531.679688 271.007812 531.679688 C 272.371094 531.679688 273.734375 531.746094 275.09375 531.882812 C 276.453125 532.015625 277.800781 532.214844 279.140625 532.480469 C 280.480469 532.746094 281.804688 533.078125 283.109375 533.476562 C 284.417969 533.871094 285.703125 534.332031 286.964844 534.851562 C 288.226562 535.375 289.457031 535.957031 290.664062 536.601562 C 291.867188 537.246094 293.035156 537.945312 294.171875 538.707031 C 295.308594 539.464844 296.402344 540.277344 297.460938 541.140625 C 298.515625 542.007812 299.527344 542.921875 300.492188 543.890625 C 301.457031 544.855469 302.375 545.863281 303.238281 546.917969 C 304.105469 547.976562 304.917969 549.070312 305.675781 550.207031 C 306.4375 551.339844 307.136719 552.511719 307.78125 553.714844 C 308.425781 554.917969 309.007812 556.148438 309.53125 557.410156 C 310.054688 558.671875 310.511719 559.957031 310.910156 561.261719 C 311.304688 562.570312 311.636719 563.890625 311.902344 565.230469 C 312.167969 566.570312 312.371094 567.917969 312.503906 569.277344 C 312.636719 570.636719 312.703125 571.996094 312.703125 573.363281 Z M 312.703125 573.363281 " fill-opacity="1" fill-rule="nonzero"/><path fill="#000000" d="M 294.472656 372.816406 C 292.324219 372.816406 290.1875 372.15625 288.382812 370.871094 C 285.429688 368.761719 283.761719 365.28125 284 361.65625 C 287.386719 310.191406 314.160156 265.640625 315.296875 263.769531 C 316.96875 261.019531 319.808594 259.191406 323.003906 258.808594 C 378.4375 252.15625 421.816406 248.925781 455.609375 248.925781 C 499.871094 248.925781 527.582031 254.621094 542.824219 266.859375 C 558.34375 279.320312 558.96875 296.359375 559.46875 310.046875 C 559.53125 311.769531 559.59375 313.5 559.683594 315.234375 C 560.296875 326.984375 557.175781 336.554688 550.414062 343.679688 C 539.671875 354.992188 521.132812 359.605469 486.425781 359.605469 C 486.421875 359.605469 486.421875 359.605469 486.421875 359.605469 C 469.554688 359.605469 449.988281 358.597656 424.191406 357.179688 C 416.3125 356.742188 408.402344 356.523438 400.683594 356.523438 C 336.1875 356.523438 298.90625 371.84375 298.539062 372 C 297.234375 372.546875 295.847656 372.816406 294.472656 372.816406 Z M 294.472656 372.816406 " fill-opacity="1" fill-rule="nonzero"/><path fill="#ffffff" d="M 324.253906 269.210938 C 324.253906 269.210938 297.71875 312.847656 294.460938 362.34375 C 294.460938 362.34375 342.023438 342.15625 424.769531 346.714844 C 507.515625 351.273438 551.167969 353.226562 549.214844 315.777344 C 547.261719 278.328125 557.683594 241.207031 324.253906 269.210938 Z M 324.253906 269.210938 " fill-opacity="1" fill-rule="nonzero"/></svg>